<svg xmlns="http://www.w3.org/2000/svg" xmlns:xlink="http://www.w3.org/1999/xlink" width="500" zoomAndPan="magnify" viewBox="0 0 375 149.999998" height="200" preserveAspectRatio="xMidYMid meet" version="1.0"><defs><g/><clipPath id="id1"><path d="M 18.925781 37.464844 L 109.445312 37.464844 L 109.445312 127.988281 L 18.925781 127.988281 Z M 18.925781 37.464844 " clip-rule="nonzero"/></clipPath><clipPath id="id2"><path d="M 74.355469 71.769531 L 123.882812 71.769531 L 123.882812 128.367188 L 74.355469 128.367188 Z M 74.355469 71.769531 " clip-rule="nonzero"/></clipPath><clipPath id="id3"><path d="M 67.285156 78.453125 L 123.882812 78.453125 L 123.882812 127.980469 L 67.285156 127.980469 Z M 67.285156 78.453125 " clip-rule="nonzero"/></clipPath><clipPath id="id4"><path d="M 33.363281 22.582031 L 123.886719 22.582031 L 123.886719 113.101562 L 33.363281 113.101562 Z M 33.363281 22.582031 " clip-rule="nonzero"/></clipPath><clipPath id="id5"><path d="M 18.929688 22.636719 L 68.453125 22.636719 L 68.453125 79.238281 L 18.929688 79.238281 Z M 18.929688 22.636719 " clip-rule="nonzero"/></clipPath><clipPath id="id6"><path d="M 18.925781 22.582031 L 75.527344 22.582031 L 75.527344 72.109375 L 18.925781 72.109375 Z M 18.925781 22.582031 " clip-rule="nonzero"/></clipPath></defs><g fill="#000000" fill-opacity="1"><g transform="translate(123.03866, 119.518292)"><g><path d="M 47.921875 0 L 47.921875 -34.84375 C 47.921875 -39.09375 47.3125 -42.296875 46.09375 -44.453125 C 44.875 -46.617188 42.910156 -47.703125 40.203125 -47.703125 C 36.484375 -47.703125 33.796875 -46.21875 32.140625 -43.25 C 30.484375 -40.28125 29.65625 -35.1875 29.65625 -27.96875 L 29.65625 0 L 7.609375 0 L 7.609375 -63.875 L 24.25 -63.875 L 27 -55.984375 L 28.296875 -55.984375 C 30.179688 -58.992188 32.785156 -61.25 36.109375 -62.75 C 39.441406 -64.25 43.265625 -65 47.578125 -65 C 54.648438 -65 60.148438 -62.953125 64.078125 -58.859375 C 68.003906 -54.765625 69.96875 -48.992188 69.96875 -41.546875 L 69.96875 0 Z M 47.921875 0 "/></g></g></g><g fill="#000000" fill-opacity="1"><g transform="translate(200.392601, 119.518292)"><g><path d="M 29.765625 0 L 7.71875 0 L 7.71875 -63.875 L 29.765625 -63.875 Z M 7.15625 -79.78125 C 7.15625 -83.082031 8.078125 -85.539062 9.921875 -87.15625 C 11.765625 -88.78125 14.734375 -89.59375 18.828125 -89.59375 C 22.929688 -89.59375 25.921875 -88.765625 27.796875 -87.109375 C 29.671875 -85.453125 30.609375 -83.007812 30.609375 -79.78125 C 30.609375 -73.3125 26.679688 -70.078125 18.828125 -70.078125 C 11.046875 -70.078125 7.15625 -73.3125 7.15625 -79.78125 Z M 7.15625 -79.78125 "/></g></g></g><g fill="#000000" fill-opacity="1"><g transform="translate(237.941962, 119.518292)"><g><path d="M 46.625 -47.359375 L 33.046875 -47.359375 L 33.046875 0 L 11 0 L 11 -47.359375 L 2.53125 -47.359375 L 2.53125 -58.1875 L 11.453125 -63.59375 L 11.453125 -64.671875 C 11.453125 -73.085938 13.171875 -79.132812 16.609375 -82.8125 C 20.046875 -86.5 25.5625 -88.34375 33.15625 -88.34375 C 36.082031 -88.34375 38.851562 -88.117188 41.46875 -87.671875 C 44.082031 -87.222656 47.117188 -86.4375 50.578125 -85.3125 L 45.84375 -71.046875 C 43.132812 -71.796875 40.484375 -72.171875 37.890625 -72.171875 C 36.191406 -72.171875 34.957031 -71.648438 34.1875 -70.609375 C 33.425781 -69.578125 33.046875 -67.898438 33.046875 -65.578125 L 33.046875 -63.875 L 46.625 -63.875 Z M 46.625 -47.359375 "/></g></g></g><g fill="#000000" fill-opacity="1"><g transform="translate(285.639801, 119.518292)"><g><path d="M -0.109375 -63.875 L 23.109375 -63.875 L 33.9375 -27.234375 C 34.46875 -25.316406 34.828125 -23.003906 35.015625 -20.296875 L 35.46875 -20.296875 C 35.769531 -22.890625 36.21875 -25.164062 36.8125 -27.125 L 47.921875 -63.875 L 70.421875 -63.875 L 45.15625 4.0625 C 41.925781 12.707031 37.953125 18.8125 33.234375 22.375 C 28.515625 25.945312 22.359375 27.734375 14.765625 27.734375 C 11.835938 27.734375 8.832031 27.414062 5.75 26.78125 L 5.75 9.46875 C 7.738281 9.925781 10.015625 10.15625 12.578125 10.15625 C 14.523438 10.15625 16.234375 9.773438 17.703125 9.015625 C 19.171875 8.265625 20.445312 7.203125 21.53125 5.828125 C 22.625 4.460938 23.789062 2.21875 25.03125 -0.90625 Z M -0.109375 -63.875 "/></g></g></g><g clip-path="url(#id1)"><path fill="#40c852" d="M 18.925781 82.730469 C 18.925781 107.726562 39.1875 127.988281 64.183594 127.988281 C 89.175781 127.988281 109.4375 107.726562 109.4375 82.730469 L 109.4375 37.472656 L 64.183594 37.472656 C 39.1875 37.464844 18.925781 57.734375 18.925781 82.730469 Z M 18.925781 82.730469 " fill-opacity="1" fill-rule="nonzero"/></g><g clip-path="url(#id2)"><path fill="#40c852" d="M 74.355469 100.070312 L 123.882812 128.363281 L 123.882812 71.773438 L 74.355469 100.070312 " fill-opacity="1" fill-rule="nonzero"/></g><g clip-path="url(#id3)"><path fill="#40c852" d="M 95.582031 78.453125 L 67.289062 127.980469 L 123.878906 127.980469 L 95.582031 78.453125 " fill-opacity="1" fill-rule="nonzero"/></g><g clip-path="url(#id4)"><path fill="#40c852" d="M 123.886719 67.839844 C 123.886719 42.84375 103.625 22.582031 78.628906 22.582031 C 53.632812 22.582031 33.371094 42.84375 33.371094 67.839844 L 33.371094 113.09375 L 78.628906 113.09375 C 103.625 113.101562 123.886719 92.832031 123.886719 67.839844 Z M 123.886719 67.839844 " fill-opacity="1" fill-rule="nonzero"/></g><g clip-path="url(#id5)"><path fill="#40c852" d="M 68.453125 50.9375 L 18.929688 22.640625 L 18.929688 79.234375 L 68.453125 50.9375 " fill-opacity="1" fill-rule="nonzero"/></g><g clip-path="url(#id6)"><path fill="#40c852" d="M 47.226562 72.109375 L 75.523438 22.582031 L 18.929688 22.582031 L 47.226562 72.109375 " fill-opacity="1" fill-rule="nonzero"/></g><g fill="#ffffff" fill-opacity="1"><g transform="translate(47.034178, 119.598343)"><g><path d="M 53.09375 0 L 50.328125 -7.953125 L 49.03125 -7.953125 C 47.195312 -5.015625 44.632812 -2.765625 41.34375 -1.203125 C 38.050781 0.347656 34.191406 1.125 29.765625 1.125 C 22.734375 1.125 17.265625 -0.910156 13.359375 -4.984375 C 9.453125 -9.066406 7.5 -14.828125 7.5 -22.265625 L 7.5 -63.859375 L 29.53125 -63.859375 L 29.53125 -28.96875 C 29.53125 -24.800781 30.125 -21.644531 31.3125 -19.5 C 32.5 -17.363281 34.441406 -16.296875 37.140625 -16.296875 C 40.941406 -16.296875 43.648438 -17.785156 45.265625 -20.765625 C 46.878906 -23.753906 47.6875 -28.800781 47.6875 -35.90625 L 47.6875 -63.859375 L 69.71875 -63.859375 L 69.71875 0 Z M 53.09375 0 "/></g></g></g></svg>